<?xml version="1.0" encoding="UTF-8"?>
<svg id="Layer_1" data-name="Layer 1" xmlns="http://www.w3.org/2000/svg" viewBox="0 0 101.33 101.53">
  <defs>
    <style>
      .cls-1 {
        stroke-width: .83px;
      }

      .cls-1, .cls-2, .cls-3, .cls-4 {
        stroke: #000;
        stroke-miterlimit: 10;
      }

      .cls-2 {
        stroke-width: .82px;
      }

      .cls-3 {
        stroke-width: 1.2px;
      }

      .cls-4 {
        stroke-width: .91px;
      }
    </style>
  </defs>
  <path class="cls-1" d="M98.32,68.44c-7.55,4.68-16.57,7.41-26.27,7.41-26.53,0-48.03-20.39-48.03-45.55,0-10.15,3.5-19.52,9.42-27.09,1.11-1.42-.42-3.38-2.06-2.64C12.73,9-.13,27.98.43,49.9c.71,27.58,23.03,50.17,50.61,51.17,22,.8,41.12-11.91,49.71-30.49.7-1.52-1.01-3.02-2.43-2.14Z"/>
  <path class="cls-3" d="M69.72,15.71c-5.52,0-9.99-4.47-9.99-9.99h0c0-.83-.67-1.5-1.5-1.5h-1.75c-.83,0-1.5.67-1.5,1.5h0c0,5.52-4.47,9.99-9.99,9.99h0c-.83,0-1.5.67-1.5,1.5v1.75c0,.83.67,1.5,1.5,1.5h0c5.52,0,9.99,4.47,9.99,9.99h0c0,.83.67,1.5,1.5,1.5h1.75c.83,0,1.5-.67,1.5-1.5h0c0-5.52,4.47-9.99,9.99-9.99h0c.83,0,1.5-.67,1.5-1.5v-1.75c0-.83-.67-1.5-1.5-1.5h0Z"/>
  <path class="cls-4" d="M94.09,31.07c-4.21,0-7.63-3.42-7.63-7.63h0c0-.63-.51-1.15-1.15-1.15h-1.33c-.63,0-1.15.51-1.15,1.15h0c0,4.21-3.42,7.63-7.63,7.63h0c-.63,0-1.15.51-1.15,1.15v1.33c0,.63.51,1.15,1.15,1.15h0c4.21,0,7.63,3.42,7.63,7.63h0c0,.63.51,1.15,1.15,1.15h1.33c.63,0,1.15-.51,1.15-1.15h0c0-4.21,3.42-7.63,7.63-7.63h0c.63,0,1.15-.51,1.15-1.15v-1.33c0-.63-.51-1.15-1.15-1.15h0Z"/>
  <path class="cls-2" d="M74.08,51.48c-3.77,0-6.83-3.06-6.83-6.83h0c0-.57-.46-1.03-1.03-1.03h-1.2c-.57,0-1.03.46-1.03,1.03h0c0,3.77-3.06,6.83-6.83,6.83h0c-.57,0-1.03.46-1.03,1.03v1.2c0,.57.46,1.03,1.03,1.03h0c3.77,0,6.83,3.06,6.83,6.83h0c0,.57.46,1.03,1.03,1.03h1.2c.57,0,1.03-.46,1.03-1.03h0c0-3.77,3.06-6.83,6.83-6.83h0c.57,0,1.03-.46,1.03-1.03v-1.2c0-.57-.46-1.03-1.03-1.03h0Z"/>
</svg>